<svg xmlns="http://www.w3.org/2000/svg" viewBox="0 0 800 400" role="img" aria-labelledby="title"><title id="title">Fenice. Más cerca de tu destino.</title><rect width="800" height="400" fill="#e5f0e9"/><g fill="none" stroke="#b9d1c3" stroke-width="2" opacity=".55"><path d="M520 0v400M640 0v400M760 0v400M400 100h400M400 220h400M400 340h400"/><path d="M400 0l400 400M380 200L680 0"/></g><path d="M530 400V320Q530 240 620 240h60v-60" fill="none" stroke="#1a615a" stroke-width="10" stroke-linecap="round"/><circle cx="680" cy="164" r="39" fill="#154b46"/><path d="M680 146c-11 0-20 9-20 20 0 14 20 30 20 30s20-16 20-30c0-11-9-20-20-20Z" fill="#d6eee0"/><circle cx="680" cy="165" r="6" fill="#154b46"/><text x="52" y="75" fill="#4b7770" font-family="Arial,sans-serif" font-size="21" letter-spacing="5">FENICE</text><text x="52" y="174" fill="#133d38" font-family="Arial,sans-serif" font-size="53" font-weight="600">Más cerca</text><text x="52" y="237" fill="#133d38" font-family="Arial,sans-serif" font-size="53" font-weight="600">de tu destino.</text><text x="55" y="321" fill="#477367" font-family="Arial,sans-serif" font-size="23">Sigue el camino de tu entrega.</text></svg>
